# File created by Blade
# Date/Time:  Tue Sep 30 19:15:05 2014
# Frame Rate: 120.000 fps
#------------------------------------------------------
:FULLY-SPECIFIED
:DEGREES
963
root -1.743996 33.541234 -2.893494 -8.824789 30.157294 -20.093928
Spine -6.200858 -2.833735 18.830572
Head 1.644033 -15.668059 11.045920
LeftShoulder 18.459903 8.343317 19.395124
LeftArm 10.296288 -23.706306 -80.309215
LeftForeArm -117.108388 11.849434 -6.000666
LeftHand 0.000032 30.729396 21.788398
LeftHandThumb1 30.357831 13.997178 22.438692
RightShoulder -4.841902 -24.613016 -19.994328
RightArm 17.533860 -22.504360 73.900260
RightForeArm 25.634561 -12.549547 24.361261
RightHand -0.000013 -6.766502 10.996469
RightHandThumb1 30.482666 -12.916435 -20.793814
LeftUpLeg -7.901099 0.428382 12.370818
LeftLeg 19.099300 0.000000 0.000000
LeftFoot -9.221718 -16.233707 -12.652236
LeftToeBase -4.813300 -0.000000 0.000000
RightUpLeg -81.457960 -2.731455 -20.065742
RightLeg 107.547897 -0.000000 -0.000000
RightFoot 25.410319 -3.911632 -15.299716
RightToeBase 11.745400 -0.000000 0.000000
964
root -1.716897 33.532835 -2.915294 -8.673284 30.108088 -19.896224
Spine -6.174056 -2.768578 18.642949
Head 1.591877 -15.837518 10.935225
LeftShoulder 18.295499 8.273602 19.407687
LeftArm 10.208222 -23.626943 -80.436588
LeftForeArm -117.069315 12.072260 -6.100821
LeftHand 0.000049 30.883851 21.982514
LeftHandThumb1 30.357831 13.997178 22.438692
RightShoulder -4.954095 -24.603881 -19.966129
RightArm 17.348442 -22.174269 73.813116
RightForeArm 25.674594 -12.455534 24.164001
RightHand -0.000032 -6.623491 11.164688
RightHandThumb1 30.482666 -12.916435 -20.793814
LeftUpLeg -7.865401 0.497015 12.122525
LeftLeg 18.955299 -0.000000 0.000000
LeftFoot -9.218377 -16.027022 -12.633680
LeftToeBase -4.812200 -0.000000 -0.000000
RightUpLeg -81.492115 -3.422712 -18.943948
RightLeg 107.660797 -0.000000 -0.000000
RightFoot 25.419266 -4.264154 -15.122634
RightToeBase 11.766500 -0.000000 -0.000000
965
root -1.685697 33.525331 -2.936994 -8.516211 30.020629 -19.701942
Spine -6.161332 -2.719226 18.501314
Head 1.577532 -15.971133 10.758738
LeftShoulder 18.220668 8.215662 19.387932
LeftArm 10.037699 -23.537805 -80.534621
LeftForeArm -117.085031 12.314171 -6.224448
LeftHand -0.000036 31.055427 22.119903
LeftHandThumb1 30.357831 13.997178 22.438692
RightShoulder -5.019629 -24.565243 -19.939655
RightArm 17.294994 -21.711253 73.681502
RightForeArm 25.695109 -12.288423 23.861285
RightHand 0.000036 -6.655162 10.929851
RightHandThumb1 30.482666 -12.916435 -20.793814
LeftUpLeg -7.826775 0.587571 11.886863
LeftLeg 18.823200 -0.000000 -0.000000
LeftFoot -9.208934 -15.866150 -12.584036
LeftToeBase -4.859600 -0.000000 0.000000
RightUpLeg -81.545421 -4.138879 -17.796263
RightLeg 107.755997 -0.000000 -0.000000
RightFoot 25.393957 -4.664098 -14.670322
RightToeBase 11.944300 -0.000000 -0.000000
966
root -1.655497 33.517034 -2.957994 -8.366963 29.895839 -19.516159
Spine -6.133228 -2.639645 18.369825
Head 1.553037 -16.133237 10.587926
LeftShoulder 18.165957 8.160167 19.358953
LeftArm 9.834558 -23.459619 -80.596856
LeftForeArm -117.114041 12.549460 -6.348402
LeftHand 0.000012 31.249161 22.069659
LeftHandThumb1 30.357831 13.997178 22.438692
RightShoulder -5.128585 -24.497653 -19.886646
RightArm 17.105855 -21.297248 73.556310
RightForeArm 25.719758 -12.207971 23.701261
RightHand 0.000034 -6.653260 11.092968
RightHandThumb1 30.482666 -12.916435 -20.793814
LeftUpLeg -7.770083 0.708418 11.669078
LeftLeg 18.670601 -0.000000 0.000000
LeftFoot -9.184922 -15.745304 -12.526732
LeftToeBase -4.953800 -0.000000 0.000000
RightUpLeg -81.625615 -4.810987 -16.551236
RightLeg 107.836098 -0.000000 -0.000000
RightFoot 25.478776 -5.285689 -14.348666
RightToeBase 11.962800 -0.000000 -0.000000
967
root -1.623097 33.508333 -2.983894 -8.207028 29.770102 -19.330472
Spine -6.106422 -2.593168 18.265816
Head 1.521240 -16.240032 10.399688
LeftShoulder 18.121546 8.173348 19.301651
LeftArm 9.624441 -23.410368 -80.638623
LeftForeArm -117.105078 12.722948 -6.431548
LeftHand -0.000021 31.400693 22.255405
LeftHandThumb1 30.357831 13.997178 22.438692
RightShoulder -5.287254 -24.439862 -19.852922
RightArm 17.032062 -20.807179 73.416789
RightForeArm 25.653313 -12.073978 23.535066
RightHand 0.000042 -6.704063 11.138845
RightHandThumb1 30.482666 -12.916435 -20.793814
LeftUpLeg -7.727785 0.745697 11.445944
LeftLeg 18.511900 -0.000000 0.000000
LeftFoot -9.181428 -15.576089 -12.581321
LeftToeBase -4.852100 -0.000000 0.000000
RightUpLeg -81.708031 -5.534602 -15.346267
RightLeg 107.912300 -0.000000 -0.000000
RightFoot 25.476087 -5.943102 -13.701567
RightToeBase 12.044200 -0.000000 0.000000
968
root -1.594697 33.500532 -3.009894 -8.028323 29.553735 -19.137469
Spine -6.054974 -2.478418 18.140592
Head 1.475026 -16.375931 10.264725
LeftShoulder 18.138185 8.239569 19.266952
LeftArm 9.453044 -23.435649 -80.648486
LeftForeArm -117.096584 12.866526 -6.499947
LeftHand -0.000038 31.535380 22.530956
LeftHandThumb1 30.357831 13.997178 22.438692
RightShoulder -5.473351 -24.360969 -19.762926
RightArm 16.887969 -20.289267 73.267256
RightForeArm 25.482102 -11.964592 23.507988
RightHand -0.000023 -6.446185 11.296097
RightHandThumb1 30.482666 -12.916435 -20.793814
LeftUpLeg -7.694114 0.883034 11.234236
LeftLeg 18.385300 -0.000000 0.000000
LeftFoot -9.176623 -15.400049 -12.570809
LeftToeBase -4.937900 -0.000000 0.000000
RightUpLeg -81.864215 -6.232842 -14.055470
RightLeg 107.967400 -0.000000 -0.000000
RightFoot 25.375705 -7.060915 -12.706569
RightToeBase 12.950200 -0.000000 0.000000
969
root -1.568497 33.491231 -3.035494 -7.852219 29.307428 -18.930979
Spine -5.971463 -2.313843 17.989231
Head 1.410929 -16.574178 10.131182
LeftShoulder 18.094124 8.262682 19.226974
LeftArm 9.206646 -23.410726 -80.604286
LeftForeArm -117.100775 12.985739 -6.559800
LeftHand 0.000004 31.722940 22.613379
LeftHandThumb1 30.357831 13.997178 22.438692
RightShoulder -5.665634 -24.355217 -19.678557
RightArm 16.744148 -19.714972 73.149005
RightForeArm 25.294080 -11.903618 23.580103
RightHand -0.000038 -6.535178 11.614823
RightHandThumb1 30.482666 -12.916435 -20.793814
LeftUpLeg -7.657219 1.057891 11.020934
LeftLeg 18.286501 -0.000000 0.000000
LeftFoot -9.210491 -15.260583 -12.551375
LeftToeBase -4.868300 -0.000000 0.000000
RightUpLeg -82.037217 -6.899045 -12.732219
RightLeg 108.007004 -0.000000 -0.000000
RightFoot 25.652569 -8.151132 -12.220759
RightToeBase 12.752100 -0.000000 0.000000
